<?xml version="1.0" encoding="UTF-8"?>
<svg width="113px" height="205px" viewBox="0 0 113 205" version="1.1" xmlns="http://www.w3.org/2000/svg" xmlns:xlink="http://www.w3.org/1999/xlink">
    <!-- Generator: Sketch 54.1 (76490) - https://sketchapp.com -->
    <title>Artboard</title>
    <desc>Created with Sketch.</desc>
    <g id="Artboard" stroke="none" stroke-width="1" fill="none" fill-rule="evenodd">
        <g id="Group" transform="translate(75.577013, 136.843213) rotate(-180.000000) translate(-75.577013, -136.843213) translate(40.077013, 70.843213)" stroke="#7777FF">
            <path d="M11.4849066,90.5882813 C31.4383741,64.3233716 43.9001209,46.2032826 48.8701471,36.2280142 C56.5768297,20.7600419 56.9076716,8.1583658 56.1549348,1.42108547e-14 C62.6989796,7.99687896 76.8159262,39.0395832 67.80587,59.2654318 C61.7991659,72.7493309 53.2124155,85.3139006 42.0456186,96.9591409 L55.1518893,110.302653 L42.0456186,120.763355 L11.4849066,90.5882813 Z" id="Path"></path>
            <polygon id="Path-2" points="-5.08038056e-13 105.457245 8.81727655 94.0810293 36.8945594 122.074763 25.6456565 131.210909"></polygon>
        </g>
        <g id="Group" transform="translate(37.088985, 68.912648) rotate(-360.000000) translate(-37.088985, -68.912648) translate(1.588985, 2.912648)" stroke="#7777FF">
            <path d="M11.4849066,90.5882813 C31.4383741,64.3233716 43.9001209,46.2032826 48.8701471,36.2280142 C56.5768297,20.7600419 56.9076716,8.1583658 56.1549348,1.42108547e-14 C62.6989796,7.99687896 76.8159262,39.0395832 67.80587,59.2654318 C61.7991659,72.7493309 53.2124155,85.3139006 42.0456186,96.9591409 L55.1518893,110.302653 L42.0456186,120.763355 L11.4849066,90.5882813 Z" id="Path"></path>
            <polygon id="Path-2" points="-5.08038056e-13 105.457245 8.81727655 94.0810293 36.8945594 122.074763 25.6456565 131.210909"></polygon>
        </g>
    </g>
</svg>